<?xml version="1.0" encoding="UTF-8"?>
<!DOCTYPE svg PUBLIC "-//W3C//DTD SVG 1.1//EN" "http://www.w3.org/Graphics/SVG/1.1/DTD/svg11.dtd">
<!-- Creator: CorelDRAW -->
<svg xmlns="http://www.w3.org/2000/svg" xml:space="preserve" width="209.903mm" height="297.039mm" style="shape-rendering:geometricPrecision; text-rendering:geometricPrecision; image-rendering:optimizeQuality; fill-rule:evenodd; clip-rule:evenodd"
viewBox="0 0 209.903 297.039"
 xmlns:xlink="http://www.w3.org/1999/xlink">
 <defs>
  <style type="text/css">
   <![CDATA[
    .str0 {stroke:#1F1A17;stroke-width:0.0762}
    .fil0 {fill:#1F1A17}
    .fil1 {fill:#1F1A17;fill-rule:nonzero}
   ]]>
  </style>
 </defs>
 <g id="__x0023_Layer_x0020_1">
  <metadata id="CorelCorpID_0Corel-Layer"/>
  <g id="_61228312">
   <g>
    <path id="_61228144" class="fil0" d="M109.989 103.511l1.411 5.9964c2.1849,-2.5137 2.0441,-3.546 3.5272,-6.3492l-2.469 0c-1.2101,0 -1.3739,0.2382 -2.4692,0.3528zm5.2239 26.157l0 0c-0.9276,2.1006 -0.934,4.3742 -1.1022,6.6644 -0.1473,2.006 0.5443,3.9861 0.8165,5.9792 0,3.2559 -0.5559,7.2323 -0.6321,10.5809l-0.1608 7.0677c0.318,2.6823 0.8249,5.4279 1.0418,8.1089l0.4567 5.6357c0.1963,2.5465 0.5395,3.6405 1.5236,5.531 0.8892,2.9062 2.5229,2.2589 3.4146,3.9928l-2.9579 0c-1.0946,-0.1828 -2.9673,-2.6917 -5.831,-3.9189 -1.5335,-0.6571 0.3232,-2.4901 0.3232,-2.783 0,-3.4678 -1.1008,-6.1289 -1.7636,-8.9735l-4.5855 -0.1976c-2.0033,0 -1.3634,1.1722 -2.5258,1.5847 -0.2026,0.0719 -0.6158,-0.0349 -0.94,-0.008l-0.0615 -1.224 -6.7019 0 -0.7284 -0.0112 -3.5044 7.4186c0.2312,0.9928 0.7054,1.7924 0.7054,2.8219 0.0247,0.9879 -1.626,1.528 -2.2015,1.6816 -0.0896,1.0784 -0.3417,1.9008 -0.3417,3.0027 -0.4454,0.2357 -1.0922,0.6067 -1.6896,0.6067 -1.2161,0 -1.241,-0.2494 -2.3442,-0.3412l-0.0508 -1.0767c2.2788,-0.6084 2.1317,-4.5484 2.6785,-6.7643 0.6074,-2.462 1.2283,-4.6171 1.8984,-7.2726 0.6079,-2.4092 1.2349,-4.7486 2.0888,-7.0824 0.7324,-2.0024 2.4922,-3.6907 2.6204,-5.9626l1.5746 -11.7117c0.7662,-5.9086 2.4385,-9.1487 5.6374,-13.0843 3.9734,-4.8884 1.4541,-2.9456 1.4173,-8.0797 -0.0016,-0.2111 -0.2102,-0.242 -0.3527,0 -0.3106,0.5272 0,1.1758 0,1.7637 -0.301,-0.3462 -0.8025,-0.6272 -0.7056,-1.411 0.1101,-0.8893 0.0305,-0.2181 0.277,-1.1723 0.079,-0.3055 -0.1429,-0.6148 -0.2145,-0.9221 -0.1485,-0.1865 -0.2971,0.0777 -0.4459,0.1166l0.3054 -0.7204 -0.9802 -0.8291 0.7566 -0.0425 -0.7751 -1.0458 -0.6869 0.3828c-0.2265,-0.9459 -0.3528,-0.6649 -0.3528,-1.4109 0,-1.2787 0.2962,-1.9689 0.7055,-2.8219 -1.8844,-2.8142 -10.9347,-8.2952 -10.9347,-11.6402l0 -0.7054c0,-0.5829 0.3906,-0.6608 0.6968,-0.6149 2.1673,0.325 4.2387,1.1154 6.3578,1.6731 2.5776,-0.6005 4.4383,-3.1746 5.291,-3.1746l1.0583 0c1.8072,0 2.9853,1.3909 4.5853,1.7636 3.1764,-0.74 6.6854,-2.4691 10.2294,-2.4691 1.0121,1.5169 0.7054,2.0975 0.7054,3.8801 0,4.1377 -2.8219,7.2146 -2.8219,10.582 0,1.4168 1.7638,1.4731 1.7638,3.1746 0,1.893 -1.0582,1.6679 -1.0582,2.8218l0 1.7637c0,1.8534 -0.944,7.6636 -1.4781,8.8731zm-20.1002 37.5275l0 0c2.0279,-0.0788 3.369,0.1466 6.0838,-0.2363l-0.2368 -0.7677 -5.0497 -0.8483 -0.7973 1.8523zm1.1198 -2.6618l0 0 13.831 2.1105c-0.1425,-2.1145 -0.2848,-4.2289 -0.4272,-6.3433 -0.8,-5.5996 -2.0456,-11.0012 -2.4001,-16.7986 -0.1958,-1.2969 -0.8686,-1.7387 -1.8328,-2.2489 -1.6221,4.7679 -4.1193,8.2158 -5.6772,14.8649 -0.7474,3.1898 -3.0177,5.6509 -3.4937,8.4154z"/>
    <path id="_61228360" class="fil0 str0" d="M104.661 54.1857l40.2964 70.0552 40.2965 70.0552 -80.5929 0 -80.5934 0 40.2965 -70.0552 40.2969 -70.0552zm0.2195 20.1051l0 0 -32.7206 55.6352 -32.7202 55.6352 65.4408 0 65.4406 0 -32.7202 -55.6352 -32.7204 -55.6352z"/>
   </g>
   <path id="_61228456" class="fil1" d="M31.4465 217.695l5.8764 -15.2961 2.1796 0 6.2609 15.2961 -2.3078 0 -1.7843 -4.6334 -6.3962 0 -1.6775 4.6334 -2.1511 0zm4.4127 -6.2823l0 0 5.1889 0 -1.599 -4.2345c-0.4844,-1.2856 -0.8477,-2.3434 -1.0828,-3.1732 -0.1959,0.983 -0.47,1.9552 -0.8262,2.9239l-1.6809 4.4838zm15.3817 4.6013l0 0 0.2705 1.6596c-0.527,0.1104 -1.0006,0.1674 -1.4173,0.1674 -0.6838,0 -1.211,-0.1068 -1.5885,-0.3241 -0.3738,-0.2137 -0.6374,-0.4986 -0.7905,-0.8511 -0.1531,-0.3491 -0.2316,-1.0898 -0.2316,-2.2152l0 -6.3749 -1.3782 0 0 -1.4602 1.3782 0 0 -2.7458 1.8698 -1.1254 0 3.8712 1.8876 0 0 1.4602 -1.8876 0 0 6.4782c0,0.5377 0.0321,0.8796 0.0962,1.0328 0.0677,0.1531 0.1744,0.2742 0.3241,0.3668 0.1495,0.089 0.3631,0.1353 0.641,0.1353 0.2101,0 0.4844,-0.0249 0.8263,-0.0748zm5.9368 0l0 0 0.2705 1.6596c-0.5271,0.1104 -1.0007,0.1674 -1.4174,0.1674 -0.6837,0 -1.2109,-0.1068 -1.5883,-0.3241 -0.3739,-0.2137 -0.6375,-0.4986 -0.7906,-0.8511 -0.1532,-0.3491 -0.2315,-1.0898 -0.2315,-2.2152l0 -6.3749 -1.3783 0 0 -1.4602 1.3783 0 0 -2.7458 1.8696 -1.1254 0 3.8712 1.8877 0 0 1.4602 -1.8877 0 0 6.4782c0,0.5377 0.0321,0.8796 0.0962,1.0328 0.0677,0.1531 0.1745,0.2742 0.3241,0.3668 0.1496,0.089 0.3633,0.1353 0.641,0.1353 0.2102,0 0.4844,-0.0249 0.8264,-0.0748zm9.4198 -1.8875l0 0 1.9408 0.2386c-0.3061,1.1361 -0.8725,2.0157 -1.6987,2.6426 -0.8298,0.6232 -1.8875,0.9366 -3.1732,0.9366 -1.6204,0 -2.906,-0.4986 -3.8534,-1.4958 -0.9509,-0.9972 -1.4245,-2.3968 -1.4245,-4.1989 0,-1.8661 0.4808,-3.312 1.4388,-4.3413 0.9616,-1.0292 2.2044,-1.5456 3.7358,-1.5456 1.4815,0 2.6924,0.5057 3.629,1.5136 0.9403,1.0078 1.4104,2.4288 1.4104,4.2558 0,0.114 -0.0036,0.2814 -0.0107,0.5022l-8.2624 0c0.0676,1.218 0.4131,2.151 1.0328,2.7957 0.6197,0.6481 1.389,0.9722 2.315,0.9722 0.6872,0 1.2749,-0.1816 1.7628,-0.5449 0.488,-0.3597 0.8726,-0.9366 1.1575,-1.7308zm-6.1648 -3.0379l0 0 6.1861 0c-0.082,-0.9295 -0.3205,-1.6311 -0.7088,-2.0941 -0.5982,-0.7229 -1.3746,-1.0862 -2.3254,-1.0862 -0.8619,0 -1.5885,0.2885 -2.176,0.8654 -0.5877,0.577 -0.9118,1.3498 -0.9759,2.3149zm10.4668 6.6064l0 0 0 -11.0795 1.6882 0 0 1.5742c0.8155,-1.218 1.9908,-1.827 3.5258,-1.827 0.6695,0 1.2821,0.1211 1.8411,0.3597 0.5628,0.2422 0.9795,0.5556 1.2572,0.9473 0.2813,0.3882 0.4736,0.8512 0.5877,1.3854 0.0677,0.349 0.1033,0.958 0.1033,1.827l0 6.8129 -1.8805 0 0 -6.7417c0,-0.7621 -0.0713,-1.3355 -0.2172,-1.7166 -0.1461,-0.3775 -0.406,-0.6802 -0.7765,-0.9046 -0.3738,-0.2279 -0.8084,-0.3419 -1.3105,-0.3419 -0.8013,0 -1.4886,0.2565 -2.0727,0.7622 -0.5805,0.5092 -0.8689,1.4708 -0.8689,2.8918l0 6.0508 -1.877 0zm15.9836 -1.681l0 0 0.2705 1.6596c-0.527,0.1104 -1.0006,0.1674 -1.4173,0.1674 -0.6838,0 -1.211,-0.1068 -1.5885,-0.3241 -0.3738,-0.2137 -0.6374,-0.4986 -0.7905,-0.8511 -0.1531,-0.3491 -0.2315,-1.0898 -0.2315,-2.2152l0 -6.3749 -1.3783 0 0 -1.4602 1.3783 0 0 -2.7458 1.8697 -1.1254 0 3.8712 1.8876 0 0 1.4602 -1.8876 0 0 6.4782c0,0.5377 0.0321,0.8796 0.0962,1.0328 0.0677,0.1531 0.1744,0.2742 0.3241,0.3668 0.1495,0.089 0.3631,0.1353 0.6409,0.1353 0.2102,0 0.4844,-0.0249 0.8264,-0.0748zm1.8446 -11.4534l0 0 0 -2.1617 1.8804 0 0 2.1617 -1.8804 0zm0 13.1344l0 0 0 -11.0795 1.8804 0 0 11.0795 -1.8804 0zm4.0386 -5.5415l0 0c0,-2.0514 0.5698,-3.5721 1.7131,-4.5586 0.9509,-0.8191 2.1119,-1.2322 3.483,-1.2322 1.5242,0 2.7708,0.4986 3.736,1.4993 0.9686,0.9972 1.4493,2.3755 1.4493,4.1348 0,1.4281 -0.2135,2.5499 -0.641,3.3655 -0.4273,0.8191 -1.0506,1.453 -1.8662,1.9053 -0.819,0.4523 -1.7093,0.6767 -2.6781,0.6767 -1.5492,0 -2.8027,-0.495 -3.7608,-1.4922 -0.9581,-0.9936 -1.4353,-2.4253 -1.4353,-4.2986zm1.9304 0l0 0c0,1.421 0.3097,2.4823 0.9295,3.1874 0.6197,0.7087 1.3995,1.0613 2.3362,1.0613 0.9332,0 1.7095,-0.3561 2.3291,-1.0648 0.6161,-0.7088 0.926,-1.7914 0.926,-3.2445 0,-1.3711 -0.3099,-2.411 -0.933,-3.1162 -0.6233,-0.7051 -1.3962,-1.0577 -2.3221,-1.0577 -0.9367,0 -1.7165,0.3526 -2.3362,1.0542 -0.6198,0.7016 -0.9295,1.7629 -0.9295,3.1803zm10.6554 5.5415l0 0 0 -11.0795 1.6882 0 0 1.5742c0.8155,-1.218 1.9908,-1.827 3.5258,-1.827 0.6695,0 1.2821,0.1211 1.8411,0.3597 0.5628,0.2422 0.9795,0.5556 1.2572,0.9473 0.2813,0.3882 0.4736,0.8512 0.5877,1.3854 0.0677,0.349 0.1033,0.958 0.1033,1.827l0 6.8129 -1.8805 0 0 -6.7417c0,-0.7621 -0.0713,-1.3355 -0.2172,-1.7166 -0.146,-0.3775 -0.406,-0.6802 -0.7765,-0.9046 -0.3738,-0.2279 -0.8084,-0.3419 -1.3105,-0.3419 -0.8014,0 -1.4886,0.2565 -2.0727,0.7622 -0.5805,0.5092 -0.8689,1.4708 -0.8689,2.8918l0 6.0508 -1.877 0zm14.7941 0l0 0 -4.06 -15.2961 2.0763 0 2.329 10.0253c0.2493,1.0506 0.4631,2.094 0.6447,3.1304 0.3918,-1.6347 0.6197,-2.5749 0.6908,-2.8277l2.9098 -10.328 2.443 0 2.1902 7.7424c0.5485,1.9196 0.9439,3.7252 1.1896,5.4133 0.1923,-0.9651 0.4487,-2.0763 0.7621,-3.3263l2.3968 -9.8294 2.0372 0 -4.1953 15.2961 -1.9516 0 -3.2232 -11.6528c-0.2706,-0.9759 -0.4308,-1.5742 -0.4808,-1.795 -0.1602,0.7016 -0.3097,1.2999 -0.4487,1.795l-3.2444 11.6528 -2.0655 0zm17.2583 0l0 0 0 -15.2961 1.877 0 0 5.4881c0.8761,-1.015 1.9836,-1.5243 3.3191,-1.5243 0.8192,0 1.5315,0.1638 2.1369,0.4879 0.6054,0.3205 1.0398,0.7692 1.2998,1.3391 0.26,0.5698 0.3918,1.3996 0.3918,2.4823l0 7.023 -1.8804 0 0 -7.023c0,-0.9367 -0.203,-1.6205 -0.609,-2.0478 -0.4061,-0.4274 -0.983,-0.6447 -1.7272,-0.6447 -0.5556,0 -1.0792,0.1461 -1.5707,0.4345 -0.4914,0.2885 -0.8404,0.6803 -1.047,1.1753 -0.2101,0.4915 -0.3133,1.1752 -0.3133,2.0442l0 6.0615 -1.877 0zm11.1828 -5.5415l0 0c0,-2.0514 0.5698,-3.5721 1.7129,-4.5586 0.9509,-0.8191 2.1119,-1.2322 3.4831,-1.2322 1.5243,0 2.7708,0.4986 3.736,1.4993 0.9687,0.9972 1.4494,2.3755 1.4494,4.1348 0,1.4281 -0.2137,2.5499 -0.641,3.3655 -0.4274,0.8191 -1.0507,1.453 -1.8662,1.9053 -0.8192,0.4523 -1.7095,0.6767 -2.6782,0.6767 -1.5491,0 -2.8027,-0.495 -3.7607,-1.4922 -0.9581,-0.9936 -1.4353,-2.4253 -1.4353,-4.2986zm1.9302 0l0 0c0,1.421 0.3099,2.4823 0.9295,3.1874 0.6197,0.7087 1.3997,1.0613 2.3363,1.0613 0.9331,0 1.7094,-0.3561 2.3292,-1.0648 0.6161,-0.7088 0.926,-1.7914 0.926,-3.2445 0,-1.3711 -0.3099,-2.411 -0.9332,-3.1162 -0.6231,-0.7051 -1.396,-1.0577 -2.322,-1.0577 -0.9366,0 -1.7166,0.3526 -2.3363,1.0542 -0.6196,0.7016 -0.9295,1.7629 -0.9295,3.1803zm10.6342 5.5415l0 0 0 -11.0795 1.6882 0 0 1.6774c0.4309,-0.7835 0.8298,-1.3034 1.1967,-1.5527 0.3631,-0.2493 0.7657,-0.3775 1.2037,-0.3775 0.6338,0 1.2749,0.203 1.9303,0.6054l-0.6482 1.7451c-0.456,-0.2742 -0.9154,-0.4096 -1.3747,-0.4096 -0.4131,0 -0.78,0.1247 -1.1077,0.3704 -0.3275,0.2493 -0.559,0.5912 -0.698,1.0293 -0.21,0.6659 -0.3133,1.396 -0.3133,2.1902l0 5.8015 -1.877 0zm14.7192 -3.5685l0 0 1.941 0.2386c-0.3063,1.1361 -0.8725,2.0157 -1.6987,2.6426 -0.8298,0.6232 -1.8876,0.9366 -3.1732,0.9366 -1.6206,0 -2.9062,-0.4986 -3.8534,-1.4958 -0.9509,-0.9972 -1.4247,-2.3968 -1.4247,-4.1989 0,-1.8661 0.4808,-3.312 1.4388,-4.3413 0.9617,-1.0292 2.2046,-1.5456 3.736,-1.5456 1.4815,0 2.6924,0.5057 3.629,1.5136 0.9401,1.0078 1.4104,2.4288 1.4104,4.2558 0,0.114 -0.0036,0.2814 -0.0108,0.5022l-8.2623 0c0.0676,1.218 0.4131,2.151 1.0328,2.7957 0.6195,0.6481 1.3888,0.9722 2.3148,0.9722 0.6874,0 1.275,-0.1816 1.7628,-0.5449 0.488,-0.3597 0.8726,-0.9366 1.1575,-1.7308zm-6.1647 -3.0379l0 0 6.1862 0c-0.0821,-0.9295 -0.3206,-1.6311 -0.7088,-2.0941 -0.5984,-0.7229 -1.3746,-1.0862 -2.3256,-1.0862 -0.8619,0 -1.5883,0.2885 -2.176,0.8654 -0.5877,0.577 -0.9117,1.3498 -0.9758,2.3149z"/>
  </g>
 </g>
</svg>
